<?xml version="1.0" encoding="UTF-8"?><svg id="Layer_1" xmlns="http://www.w3.org/2000/svg" viewBox="0 0 119.52 39.42"><defs><style>.cls-1{fill:#fff;}</style></defs><path class="cls-1" d="M10.8,28.68v9.84H0V2.52H27.48V12.42H10.8v7.02h15.48v9.24H10.8Z"/><path class="cls-1" d="M46.26,31.68h-.9c-1.38,4.44-4.08,7.44-8.82,7.44-4.38,0-8.1-2.52-8.1-8.28,0-5.1,3-8.52,10.92-8.52h6.36v-1.98c0-2.1-1.02-3.36-3.18-3.36-1.92,0-3.06,.96-3.42,3.06l-9.54-2.1c.84-4.98,4.74-8.94,13.38-8.94,9.24,0,12.9,4.14,12.9,11.4v18.12h-9.6v-6.84Zm-.54-4.44v-1.08h-4.2c-1.98,0-3.48,1.08-3.48,2.7s.84,2.64,3.3,2.64c2.7,0,4.38-1.8,4.38-4.26Z"/><path class="cls-1" d="M59.34,6.78V0h10.2V6.78h-10.2Zm0,31.74V9.84h10.2v28.68h-10.2Z"/><path class="cls-1" d="M73.02,38.52V9.84h9.6v10.08h.84c2.1-9.24,4.14-10.38,7.44-10.38h.72v11.76h-1.92c-5.46,0-6.48,1.14-6.48,5.34v11.88h-10.2Z"/><path class="cls-1" d="M92.94,30.6l9.06-1.86c.66,2.76,2.4,3.72,4.8,3.72,1.92,0,2.88-.54,2.94-1.8,0-1.14-.66-1.92-5.46-3-8.1-1.92-10.74-4.44-10.74-9.6,0-5.88,4.14-9.12,12.78-9.12s11.64,3.3,12.54,8.22l-9,1.86c-.42-2.28-1.32-3.3-3.78-3.3-1.98,0-2.94,.6-2.94,1.74,0,1.08,.36,1.98,5.16,3.06,9.42,2.1,11.22,5.28,11.22,9.66,0,5.88-3.9,9.24-12.96,9.24-10.26,0-13.02-3.96-13.62-8.82Z"/></svg>